<svg width="495" height="98" viewBox="0 0 495 98" fill="none" xmlns="http://www.w3.org/2000/svg">
<path d="M480.266 84.7891L453.244 14.209H467.058L494.886 84.7891H480.266ZM424.508 84.7891L452.337 14.209H466.15L439.128 84.7891H424.508ZM437.616 69.2615V57.0612H481.879V69.2615H437.616Z" fill="#FFFFFF"/>
<path d="M409.271 84.7923V14.2122H423.085V84.7923H409.271ZM362.789 84.7923V14.1113H376.603V84.7923H362.789ZM373.074 55.0478V42.3434H415.825V55.0478H373.074Z" fill="#FFFFFF"/>
<path d="M334.317 86C330.754 86 327.427 85.5631 324.335 84.6892C321.243 83.8154 318.487 82.6054 316.067 81.0594C313.647 79.4461 311.63 77.6648 310.017 75.7155C308.471 73.7661 307.463 71.7159 306.992 69.5649L320.503 65.5318C321.377 67.8172 322.923 69.8002 325.141 71.4807C327.36 73.0939 330.149 73.9342 333.51 74.0014C337.073 74.0686 339.963 73.2956 342.181 71.6823C344.467 70.0691 345.61 67.9853 345.61 65.4309C345.61 63.2127 344.702 61.3642 342.887 59.8854C341.14 58.3393 338.72 57.163 335.628 56.3564L326.452 53.9365C323.024 53.0626 319.999 51.7518 317.378 50.0041C314.756 48.1892 312.706 45.971 311.227 43.3494C309.748 40.7279 309.009 37.6694 309.009 34.174C309.009 27.5193 311.193 22.3435 315.563 18.6464C319.999 14.8821 326.25 13 334.317 13C338.82 13 342.753 13.6722 346.114 15.0166C349.542 16.2937 352.399 18.1423 354.684 20.5622C356.97 22.982 358.717 25.8389 359.927 29.1326L346.517 33.2666C345.71 30.9811 344.232 29.0318 342.081 27.4185C339.93 25.8052 337.207 24.9986 333.913 24.9986C330.553 24.9986 327.897 25.7716 325.948 27.3177C324.066 28.8637 323.125 31.0483 323.125 33.8715C323.125 36.0898 323.864 37.8375 325.343 39.1146C326.889 40.3918 328.973 41.3665 331.594 42.0387L340.871 44.3577C346.92 45.8366 351.626 48.4917 354.987 52.3232C358.348 56.1547 360.028 60.4231 360.028 65.1285C360.028 69.296 359.02 72.9595 357.003 76.1188C354.987 79.2109 352.063 81.6308 348.231 83.3785C344.4 85.1262 339.762 86 334.317 86Z" fill="#FFFFFF"/>
<path d="M279.129 86C275.567 86 272.239 85.5631 269.147 84.6892C266.055 83.8154 263.299 82.6054 260.879 81.0594C258.459 79.4461 256.443 77.6648 254.83 75.7155C253.284 73.7661 252.275 71.7159 251.805 69.5649L265.316 65.5318C266.19 67.8172 267.736 69.8002 269.954 71.4807C272.172 73.0939 274.962 73.9342 278.323 74.0014C281.885 74.0686 284.776 73.2956 286.994 71.6823C289.279 70.0691 290.422 67.9853 290.422 65.4309C290.422 63.2127 289.515 61.3642 287.7 59.8854C285.952 58.3393 283.532 57.163 280.44 56.3564L271.265 53.9365C267.836 53.0626 264.812 51.7518 262.19 50.0041C259.569 48.1892 257.518 45.971 256.039 43.3494C254.561 40.7279 253.821 37.6694 253.821 34.174C253.821 27.5193 256.006 22.3435 260.375 18.6464C264.812 14.8821 271.063 13 279.129 13C283.633 13 287.565 13.6722 290.926 15.0166C294.354 16.2937 297.211 18.1423 299.497 20.5622C301.782 22.982 303.53 25.8389 304.74 29.1326L291.33 33.2666C290.523 30.9811 289.044 29.0318 286.893 27.4185C284.742 25.8052 282.02 24.9986 278.726 24.9986C275.365 24.9986 272.71 25.7716 270.76 27.3177C268.878 28.8637 267.937 31.0483 267.937 33.8715C267.937 36.0898 268.677 37.8375 270.156 39.1146C271.702 40.3918 273.785 41.3665 276.407 42.0387L285.683 44.3577C291.733 45.8366 296.438 48.4917 299.799 52.3232C303.16 56.1547 304.841 60.4231 304.841 65.1285C304.841 69.296 303.832 72.9595 301.816 76.1188C299.799 79.2109 296.875 81.6308 293.044 83.3785C289.212 85.1262 284.574 86 279.129 86Z" fill="#FFFFFF"/>
<path d="M240.407 84.7891L213.385 14.209H227.198L255.027 84.7891H240.407ZM184.648 84.7891L212.477 14.209H226.291L199.269 84.7891H184.648ZM197.756 69.2615V57.0612H242.02V69.2615H197.756Z" fill="#FFFFFF"/>
<path d="M127 84.7891V71.883L165.214 27.1151H127.302V14.209H183.061V27.1151L144.847 71.883H182.758V84.7891H127Z" fill="#FFFFFF"/>
<path d="M31.1978 37.334L0 75.814V98.0007H97.4712V75.814H31.1978V37.334Z" fill="#FFFFFF"/>
<path d="M66.8046 22.1867V60.6667L98.0025 22.1867V0H0.53125V22.1867H66.8046Z" fill="#FFFFFF"/>
</svg>
